<?xml version="1.0" encoding="utf-8"?>
<!-- Generator: Adobe Illustrator 25.1.0, SVG Export Plug-In . SVG Version: 6.00 Build 0)  -->
<svg version="1.1" id="Layer_1" xmlns="http://www.w3.org/2000/svg" xmlns:xlink="http://www.w3.org/1999/xlink" x="0px" y="0px"
	 viewBox="0 0 512 512" style="enable-background:new 0 0 512 512;" xml:space="preserve">
<style type="text/css">
	.st0{fill-rule:evenodd;clip-rule:evenodd;fill:#FFFFFF;}
</style>
<path class="st0" d="M256,8C115.7,8,1.9,121.7,1.9,262c0,112.2,72.8,207.4,173.7,241c12.7,2.3,17.3-5.5,17.3-12.2
	c0-6-0.2-22-0.3-43.2c-70.7,15.4-85.6-34.1-85.6-34.1c-11.6-29.3-28.2-37.2-28.2-37.2c-23.1-15.8,1.7-15.4,1.7-15.4
	c25.5,1.8,38.9,26.2,38.9,26.2c22.7,38.8,59.5,27.6,73.9,21.1c2.3-16.4,8.9-27.6,16.1-34c-56.4-6.4-115.7-28.2-115.7-125.5
	c0-27.7,9.9-50.4,26.1-68.2c-2.6-6.4-11.3-32.3,2.5-67.2c0,0,21.3-6.8,69.9,26c20.3-5.6,42-8.5,63.6-8.6c21.6,0.1,43.3,2.9,63.6,8.6
	c48.5-32.9,69.8-26,69.8-26c13.9,35,5.1,60.8,2.5,67.2c16.3,17.8,26.1,40.4,26.1,68.2c0,97.6-59.4,119.1-116,125.4
	c9.1,7.8,17.2,23.3,17.2,47c0,34-0.3,61.4-0.3,69.7c0,6.8,4.6,14.7,17.5,12.2C437.3,469.4,510,374.2,510,262
	C510,121.7,396.3,8,256,8z"/>
</svg>
